<svg class="icon" style="width: 20px;height: 20px;vertical-align: middle;fill: currentColor;overflow: hidden;" viewBox="0 0 1024 1024" version="1.1"
    xmlns="http://www.w3.org/2000/svg" p-id="15826">
    <path d="M842.24 591.36c17.92-22.016 27.648-49.664 27.648-78.336-2.048-71.68-61.44-129.024-133.12-127.488H721.92c12.288-11.264 20.992-25.6 26.112-41.472 10.24-15.36 15.872-33.28 15.872-51.2-1.024-53.76-45.568-96.256-99.328-95.744h-133.632c-8.192-1.024-16.384-2.56-24.576-4.608-19.456-11.264-22.528-36.864-22.528-60.416 0-7.168 7.68-51.2 8.704-57.856C409.6 89.088 339.456 196.608 339.456 281.088c0 35.328 12.8 86.528 31.744 103.936H285.184c-72.192-1.024-131.584 55.808-133.12 128 0 28.672 9.728 56.32 27.648 78.336-79.872 20.992-135.68 92.672-137.216 175.104 0 100.864 85.504 182.784 189.952 182.784h557.056c104.448 0 189.952-82.432 189.952-182.784-1.024-82.432-57.344-154.112-137.216-175.104z" fill="#FFAA00" p-id="15827"></path>
    <path d="M789.504 974.336H231.936c-118.784 0-215.04-93.184-215.04-207.872 1.024-81.92 49.664-155.648 124.928-188.416-9.728-19.968-14.848-42.496-14.848-64.512 1.536-86.016 72.192-154.624 158.208-153.6h43.008c-8.704-25.6-13.824-52.224-14.336-78.848 0-92.672 76.288-214.016 174.592-231.936 8.192-1.536 15.872 1.024 22.016 6.656 5.632 5.632 8.704 13.824 7.68 21.504 0 2.048-1.024 6.144-2.048 12.288-1.536 10.24-6.144 37.376-6.144 43.008 0 12.8 1.024 30.208 7.168 36.352 4.608 1.024 11.776 2.048 14.848 2.56h132.096c67.584-1.024 123.392 53.248 124.416 120.832 0 22.016-6.144 43.52-17.92 62.464-1.024 3.072-2.048 5.632-3.072 8.192 72.704 13.312 125.952 76.288 126.976 150.528 0 22.528-5.12 44.544-14.848 64.512 74.752 32.768 123.904 106.496 124.928 188.416 0 114.688-96.768 207.872-215.04 207.872zM285.184 410.112c-58.368-1.536-106.496 44.544-108.032 102.912 0 22.528 8.192 44.544 22.528 61.952 5.12 6.656 6.656 15.36 4.096 23.552s-9.216 14.336-16.896 16.384c-69.12 17.92-117.76 79.872-119.296 151.04 0 87.04 73.728 157.696 164.864 157.696h557.568c90.624 0 164.864-70.656 164.864-157.696-1.536-71.168-50.176-133.12-119.296-151.04-8.192-2.048-14.336-8.704-16.896-16.384-2.56-8.192-1.024-16.896 4.096-23.552 14.336-17.408 22.528-39.424 22.528-61.952-1.536-58.368-49.664-104.448-108.032-102.912h-15.36c-10.24 0-19.456-6.144-23.552-15.872-3.584-9.728-1.536-20.48 6.144-27.648 9.216-8.192 15.872-18.944 19.456-30.72 0.512-2.048 1.536-4.608 3.072-6.144 7.168-11.264 11.264-24.064 11.264-37.376-1.024-39.936-34.304-71.168-74.24-70.656h-133.12c-12.8-1.024-25.088-3.584-37.376-8.192C460.8 194.56 460.8 151.04 460.8 132.096c0.512-6.656 1.024-12.8 2.048-19.456-55.296 32.256-97.28 109.568-97.28 168.448 0 33.792 13.312 75.776 24.064 86.016 7.68 7.168 10.24 18.432 6.144 28.16s-13.824 15.872-24.064 15.36l-86.528-0.512z" fill="#30221F" p-id="15828"></path>
    <path d="M327.168 584.192c-1.024 17.92 8.192 34.816 23.552 43.52 15.36 9.216 34.304 9.216 49.664 0s24.064-26.112 23.552-43.52c-1.024-25.6-22.528-46.08-48.128-46.08-26.112 0.512-47.616 20.48-48.64 46.08z m270.848 0c0 19.456 11.776 37.376 29.696 44.544 17.92 7.68 38.912 3.584 52.736-10.24s17.92-34.816 10.24-52.736-25.088-29.696-44.544-29.696c-12.8 0-25.088 5.12-34.304 14.336-8.704 8.704-13.824 20.992-13.824 33.792z m-87.04 176.64c-38.4 0-74.752-16.384-100.864-44.032-9.728-11.264-8.704-28.672 2.048-38.4 10.752-10.24 28.16-9.728 38.912 0.512 15.36 16.896 37.376 26.112 59.904 26.112 23.04 0 44.544-9.728 59.904-26.112 10.752-10.752 27.648-10.752 38.912-0.512s11.776 27.136 2.048 38.4c-25.6 28.16-62.464 44.032-100.864 44.032z" fill="#66443B" p-id="15829"></path>
</svg>